<?xml version="1.0" encoding="UTF-8" standalone="no"?>
<!-- Created with Inkscape (http://www.inkscape.org/) -->

<svg
   width="19.464575mm"
   height="17.985626mm"
   viewBox="0 0 19.464575 17.985626"
   version="1.1"
   id="svg1"
   inkscape:version="1.3 (0e150ed6c4, 2023-07-21)"
   sodipodi:docname="progression.svg"
   xml:space="preserve"
   xmlns:inkscape="http://www.inkscape.org/namespaces/inkscape"
   xmlns:sodipodi="http://sodipodi.sourceforge.net/DTD/sodipodi-0.dtd"
   xmlns="http://www.w3.org/2000/svg"
   xmlns:svg="http://www.w3.org/2000/svg"><sodipodi:namedview
     id="namedview1"
     pagecolor="#ffffff"
     bordercolor="#000000"
     borderopacity="0.25"
     inkscape:showpageshadow="2"
     inkscape:pageopacity="0.0"
     inkscape:pagecheckerboard="0"
     inkscape:deskcolor="#d1d1d1"
     inkscape:document-units="mm"
     inkscape:zoom="1.9225408"
     inkscape:cx="357.59969"
     inkscape:cy="301.42403"
     inkscape:window-width="1280"
     inkscape:window-height="1001"
     inkscape:window-x="-8"
     inkscape:window-y="-8"
     inkscape:window-maximized="1"
     inkscape:current-layer="layer1" /><defs
     id="defs1" /><g
     inkscape:label="Layer 1"
     inkscape:groupmode="layer"
     id="layer1"
     transform="translate(-68.427843,-95.837758)"><g
       id="g14"
       transform="matrix(0.19216003,0,0,0.19216003,66.677826,60.428819)"
       inkscape:export-filename="progression\logo.svg"
       inkscape:export-xdpi="320"
       inkscape:export-ydpi="320"><g
         id="g12"
         transform="translate(5.2916663,3.1749999)"
         style="fill:#a1a1a1;fill-opacity:1"><path
           sodipodi:type="star"
           style="fill:#a1a1a1;fill-opacity:1;stroke:#333333;stroke-width:2.6763;stroke-dasharray:none"
           id="path8"
           inkscape:flatsided="false"
           sodipodi:sides="6"
           sodipodi:cx="41.561752"
           sodipodi:cy="180.28442"
           sodipodi:r1="29.452328"
           sodipodi:r2="25.476265"
           sodipodi:arg1="0.9179497"
           sodipodi:arg2="1.4415485"
           inkscape:rounded="0"
           inkscape:randomized="0"
           d="m 59.452572,203.68011 -14.607228,1.86808 -14.599441,1.92798 -8.921422,-11.71619 -8.969398,-11.6795 5.685806,-13.58427 5.630044,-13.60747 14.607227,-1.86809 14.599442,-1.92797 8.921421,11.71618 8.969399,11.6795 -5.685807,13.58428 z"
           inkscape:transform-center-x="-1.5767919"
           inkscape:transform-center-y="0.066978711"
           transform="matrix(-0.07729018,0.59998175,-0.59998175,-0.07729018,152.61269,218.47695)" /><path
           sodipodi:type="star"
           style="fill:#a1a1a1;fill-opacity:1;stroke:#333333;stroke-width:2.6763;stroke-dasharray:none"
           id="path9"
           inkscape:flatsided="false"
           sodipodi:sides="6"
           sodipodi:cx="41.561752"
           sodipodi:cy="180.28442"
           sodipodi:r1="29.452328"
           sodipodi:r2="25.476265"
           sodipodi:arg1="0.9179497"
           sodipodi:arg2="1.4415485"
           inkscape:rounded="0"
           inkscape:randomized="0"
           d="m 59.452572,203.68011 -14.607228,1.86808 -14.599441,1.92798 -8.921422,-11.71619 -8.969398,-11.6795 5.685806,-13.58427 5.630044,-13.60747 14.607227,-1.86809 14.599442,-1.92797 8.921421,11.71618 8.969399,11.6795 -5.685807,13.58428 z"
           inkscape:transform-center-x="-1.5767919"
           inkscape:transform-center-y="0.066978711"
           transform="matrix(-0.07729018,0.59998175,-0.59998175,-0.07729018,168.4877,192.0186)" /><path
           sodipodi:type="star"
           style="fill:#a1a1a1;fill-opacity:1;stroke:#333333;stroke-width:2.6763;stroke-dasharray:none"
           id="path10"
           inkscape:flatsided="false"
           sodipodi:sides="6"
           sodipodi:cx="41.561752"
           sodipodi:cy="180.28442"
           sodipodi:r1="29.452328"
           sodipodi:r2="25.476265"
           sodipodi:arg1="0.9179497"
           sodipodi:arg2="1.4415485"
           inkscape:rounded="0"
           inkscape:randomized="0"
           d="m 59.452572,203.68011 -14.607228,1.86808 -14.599441,1.92798 -8.921422,-11.71619 -8.969398,-11.6795 5.685806,-13.58427 5.630044,-13.60747 14.607227,-1.86809 14.599442,-1.92797 8.921421,11.71618 8.969399,11.6795 -5.685807,13.58428 z"
           inkscape:transform-center-x="-1.5767919"
           inkscape:transform-center-y="0.066978711"
           transform="matrix(-0.07729018,0.59998175,-0.59998175,-0.07729018,184.36271,218.47695)" /><path
           sodipodi:type="star"
           style="fill:#a1a1a1;fill-opacity:1;stroke:#333333;stroke-width:2.6763;stroke-dasharray:none"
           id="path11"
           inkscape:flatsided="false"
           sodipodi:sides="6"
           sodipodi:cx="41.561752"
           sodipodi:cy="180.28442"
           sodipodi:r1="29.452328"
           sodipodi:r2="25.476265"
           sodipodi:arg1="0.9179497"
           sodipodi:arg2="1.4415485"
           inkscape:rounded="0"
           inkscape:randomized="0"
           d="m 59.452572,203.68011 -14.607228,1.86808 -14.599441,1.92798 -8.921422,-11.71619 -8.969398,-11.6795 5.685806,-13.58427 5.630044,-13.60747 14.607227,-1.86809 14.599442,-1.92797 8.921421,11.71618 8.969399,11.6795 -5.685807,13.58428 z"
           inkscape:transform-center-x="-1.5767919"
           inkscape:transform-center-y="0.066978711"
           transform="matrix(-0.07729018,0.59998175,-0.59998175,-0.07729018,200.23772,244.9353)" /><path
           sodipodi:type="star"
           style="fill:#a1a1a1;fill-opacity:1;stroke:#333333;stroke-width:2.6763;stroke-dasharray:none"
           id="path12"
           inkscape:flatsided="false"
           sodipodi:sides="6"
           sodipodi:cx="41.561752"
           sodipodi:cy="180.28442"
           sodipodi:r1="29.452328"
           sodipodi:r2="25.476265"
           sodipodi:arg1="0.9179497"
           sodipodi:arg2="1.4415485"
           inkscape:rounded="0"
           inkscape:randomized="0"
           d="m 59.452572,203.68011 -14.607228,1.86808 -14.599441,1.92798 -8.921422,-11.71619 -8.969398,-11.6795 5.685806,-13.58427 5.630044,-13.60747 14.607227,-1.86809 14.599442,-1.92797 8.921421,11.71618 8.969399,11.6795 -5.685807,13.58428 z"
           inkscape:transform-center-x="-1.5767919"
           inkscape:transform-center-y="0.066978711"
           transform="matrix(-0.07729018,0.59998175,-0.59998175,-0.07729018,136.73768,244.9353)" /></g><g
         id="g7"><path
           sodipodi:type="star"
           style="fill:#e6e6e6;fill-opacity:1;stroke:#333333;stroke-width:2.6763;stroke-dasharray:none"
           id="path3"
           inkscape:flatsided="false"
           sodipodi:sides="6"
           sodipodi:cx="41.561752"
           sodipodi:cy="180.28442"
           sodipodi:r1="29.452328"
           sodipodi:r2="25.476265"
           sodipodi:arg1="0.9179497"
           sodipodi:arg2="1.4415485"
           inkscape:rounded="0"
           inkscape:randomized="0"
           d="m 59.452572,203.68011 -14.607228,1.86808 -14.599441,1.92798 -8.921422,-11.71619 -8.969398,-11.6795 5.685806,-13.58427 5.630044,-13.60747 14.607227,-1.86809 14.599442,-1.92797 8.921421,11.71618 8.969399,11.6795 -5.685807,13.58428 z"
           inkscape:transform-center-x="-1.5767919"
           inkscape:transform-center-y="0.066978711"
           transform="matrix(-0.07729018,0.59998175,-0.59998175,-0.07729018,152.61269,218.47695)" /><path
           sodipodi:type="star"
           style="fill:#e6e6e6;fill-opacity:1;stroke:#333333;stroke-width:2.6763;stroke-dasharray:none"
           id="path4"
           inkscape:flatsided="false"
           sodipodi:sides="6"
           sodipodi:cx="41.561752"
           sodipodi:cy="180.28442"
           sodipodi:r1="29.452328"
           sodipodi:r2="25.476265"
           sodipodi:arg1="0.9179497"
           sodipodi:arg2="1.4415485"
           inkscape:rounded="0"
           inkscape:randomized="0"
           d="m 59.452572,203.68011 -14.607228,1.86808 -14.599441,1.92798 -8.921422,-11.71619 -8.969398,-11.6795 5.685806,-13.58427 5.630044,-13.60747 14.607227,-1.86809 14.599442,-1.92797 8.921421,11.71618 8.969399,11.6795 -5.685807,13.58428 z"
           inkscape:transform-center-x="-1.5767919"
           inkscape:transform-center-y="0.066978711"
           transform="matrix(-0.07729018,0.59998175,-0.59998175,-0.07729018,168.4877,192.0186)" /><path
           sodipodi:type="star"
           style="fill:#e6e6e6;fill-opacity:1;stroke:#333333;stroke-width:2.6763;stroke-dasharray:none"
           id="path5"
           inkscape:flatsided="false"
           sodipodi:sides="6"
           sodipodi:cx="41.561752"
           sodipodi:cy="180.28442"
           sodipodi:r1="29.452328"
           sodipodi:r2="25.476265"
           sodipodi:arg1="0.9179497"
           sodipodi:arg2="1.4415485"
           inkscape:rounded="0"
           inkscape:randomized="0"
           d="m 59.452572,203.68011 -14.607228,1.86808 -14.599441,1.92798 -8.921422,-11.71619 -8.969398,-11.6795 5.685806,-13.58427 5.630044,-13.60747 14.607227,-1.86809 14.599442,-1.92797 8.921421,11.71618 8.969399,11.6795 -5.685807,13.58428 z"
           inkscape:transform-center-x="-1.5767919"
           inkscape:transform-center-y="0.066978711"
           transform="matrix(-0.07729018,0.59998175,-0.59998175,-0.07729018,184.36271,218.47695)" /><path
           sodipodi:type="star"
           style="fill:#e6e6e6;fill-opacity:1;stroke:#333333;stroke-width:2.6763;stroke-dasharray:none"
           id="path6"
           inkscape:flatsided="false"
           sodipodi:sides="6"
           sodipodi:cx="41.561752"
           sodipodi:cy="180.28442"
           sodipodi:r1="29.452328"
           sodipodi:r2="25.476265"
           sodipodi:arg1="0.9179497"
           sodipodi:arg2="1.4415485"
           inkscape:rounded="0"
           inkscape:randomized="0"
           d="m 59.452572,203.68011 -14.607228,1.86808 -14.599441,1.92798 -8.921422,-11.71619 -8.969398,-11.6795 5.685806,-13.58427 5.630044,-13.60747 14.607227,-1.86809 14.599442,-1.92797 8.921421,11.71618 8.969399,11.6795 -5.685807,13.58428 z"
           inkscape:transform-center-x="-1.5767919"
           inkscape:transform-center-y="0.066978711"
           transform="matrix(-0.07729018,0.59998175,-0.59998175,-0.07729018,200.23772,244.9353)" /><path
           sodipodi:type="star"
           style="fill:#e6e6e6;fill-opacity:1;stroke:#333333;stroke-width:2.6763;stroke-dasharray:none"
           id="path7"
           inkscape:flatsided="false"
           sodipodi:sides="6"
           sodipodi:cx="41.561752"
           sodipodi:cy="180.28442"
           sodipodi:r1="29.452328"
           sodipodi:r2="25.476265"
           sodipodi:arg1="0.9179497"
           sodipodi:arg2="1.4415485"
           inkscape:rounded="0"
           inkscape:randomized="0"
           d="m 59.452572,203.68011 -14.607228,1.86808 -14.599441,1.92798 -8.921422,-11.71619 -8.969398,-11.6795 5.685806,-13.58427 5.630044,-13.60747 14.607227,-1.86809 14.599442,-1.92797 8.921421,11.71618 8.969399,11.6795 -5.685807,13.58428 z"
           inkscape:transform-center-x="-1.5767919"
           inkscape:transform-center-y="0.066978711"
           transform="matrix(-0.07729018,0.59998175,-0.59998175,-0.07729018,136.73768,244.9353)" /></g><path
         style="fill:#a1a1a1;fill-opacity:1;stroke:#333333;stroke-width:1.619;stroke-dasharray:none"
         d="m 103.93054,264.30275 5.83879,3.69791"
         id="path13" /><path
         style="fill:#a1a1a1;fill-opacity:1;stroke:#333333;stroke-width:1.619;stroke-dasharray:none"
         d="m 40.87156,264.49737 5.060289,3.50329"
         id="path14" /></g></g></svg>
